<svg width="204" height="314" viewBox="0 0 204 314" fill="none" xmlns="http://www.w3.org/2000/svg">
<path d="M151.012 84.2229H53.8871V193.337H1.29661V0H202.703V193.337H151.012V84.2229Z" fill="#135786"/>
<path d="M0 268.211V211.546H20.0438C26.725 211.546 32.2288 212.733 36.5552 215.108C40.9364 217.428 44.1674 220.72 46.2485 224.984C48.3843 229.193 49.4522 234.158 49.4522 239.878C49.4522 245.599 48.3843 250.591 46.2485 254.854C44.1674 259.064 40.9364 262.355 36.5552 264.73C32.2288 267.051 26.6976 268.211 19.9616 268.211H0ZM11.0898 258.821H19.3866C24.0963 258.821 27.8203 258.065 30.5585 256.554C33.2967 255.043 35.2409 252.884 36.3909 250.078C37.541 247.218 38.116 243.818 38.116 239.878C38.116 235.885 37.541 232.485 36.3909 229.679C35.2409 226.818 33.2967 224.633 30.5585 223.122C27.8203 221.611 24.0963 220.855 19.3866 220.855H11.0898V258.821Z" fill="#135786"/>
<path d="M83.0777 269.182C77.3822 269.182 72.3713 267.941 68.0449 265.459C63.7185 262.976 60.3231 259.549 57.8587 255.178C55.4491 250.753 54.2443 245.653 54.2443 239.878C54.2443 234.104 55.4491 229.031 57.8587 224.66C60.3231 220.234 63.7185 216.781 68.0449 214.298C72.3713 211.816 77.3822 210.574 83.0777 210.574C88.7732 210.574 93.7842 211.816 98.1105 214.298C102.492 216.781 105.887 220.234 108.297 224.66C110.761 229.031 111.993 234.104 111.993 239.878C111.993 245.653 110.761 250.753 108.297 255.178C105.887 259.549 102.492 262.976 98.1105 265.459C93.7842 267.941 88.7732 269.182 83.0777 269.182ZM83.0777 259.387C86.6374 259.387 89.7316 258.605 92.3603 257.04C94.989 255.421 97.0153 253.154 98.4391 250.24C99.9178 247.326 100.657 243.872 100.657 239.878C100.657 235.831 99.9178 232.377 98.4391 229.517C97.0153 226.603 94.989 224.363 92.3603 222.798C89.7316 221.233 86.6374 220.45 83.0777 220.45C79.5181 220.45 76.4239 221.233 73.7952 222.798C71.1665 224.363 69.1128 226.603 67.6342 229.517C66.2103 232.377 65.4984 235.831 65.4984 239.878C65.4984 243.872 66.2103 247.326 67.6342 250.24C69.1128 253.154 71.1665 255.421 73.7952 257.04C76.4239 258.605 79.5181 259.387 83.0777 259.387Z" fill="#135786"/>
<path d="M117.848 268.211V211.546H155.718V220.369H128.938V235.183H153.253V243.683H128.938V259.387H155.718V268.211H117.848Z" fill="#135786"/>
<path d="M161.53 268.211V211.546H183.053C187.653 211.546 191.459 212.328 194.471 213.893C197.538 215.458 199.811 217.563 201.289 220.207C202.768 222.798 203.507 225.685 203.507 228.869C203.507 231.891 202.768 234.725 201.289 237.369C199.865 239.959 197.62 242.064 194.553 243.683C191.541 245.248 187.653 246.031 182.888 246.031H172.62V268.211H161.53ZM191.349 268.211L179.52 243.278H191.514L204 268.211H191.349ZM172.62 238.097H182.395C185.736 238.097 188.2 237.288 189.789 235.669C191.377 234.05 192.171 231.918 192.171 229.274C192.171 226.63 191.377 224.552 189.789 223.041C188.255 221.476 185.763 220.693 182.313 220.693H172.62V238.097Z" fill="#135786"/>
<path d="M0 313.543L10.4789 286.877H14.0937L24.5319 313.543H20.9171L12.266 290.877L3.57419 313.543H0ZM4.79266 306.686L5.76744 304.096H18.6426L19.6174 306.686H4.79266Z" fill="#135786"/>
<path d="M27.9868 313.543V286.877H36.3537C39.6842 286.877 42.4189 287.423 44.558 288.515C46.7242 289.582 48.3218 291.118 49.3507 293.124C50.4067 295.105 50.9347 297.493 50.9347 300.286C50.9347 303.029 50.4067 305.391 49.3507 307.372C48.3218 309.353 46.7242 310.876 44.558 311.943C42.4189 313.01 39.6842 313.543 36.3537 313.543H27.9868ZM31.3985 310.876H36.2724C39.0343 310.876 41.2276 310.457 42.8522 309.619C44.4768 308.756 45.6411 307.537 46.3451 305.962C47.0491 304.362 47.4011 302.47 47.4011 300.286C47.4011 298.051 47.0491 296.134 46.3451 294.534C45.6411 292.934 44.4768 291.702 42.8522 290.839C41.2276 289.975 39.0343 289.544 36.2724 289.544H31.3985V310.876Z" fill="#135786"/>
<path d="M55.1375 313.543V286.877H59.1178L69.1499 305.505L79.2226 286.877H83.2436V313.543H79.8319V292.591L70.4496 309.81H67.8908L58.5492 292.667V313.543H55.1375Z" fill="#135786"/>
<path d="M88.4757 313.543V286.877H91.8875V313.543H88.4757Z" fill="#135786"/>
<path d="M106.24 314C104.155 314 102.341 313.644 100.798 312.933C99.2542 312.222 98.0628 311.232 97.2234 309.962C96.384 308.692 95.9643 307.219 95.9643 305.543H99.5385C99.5385 306.584 99.7957 307.549 100.31 308.438C100.825 309.302 101.569 310 102.544 310.533C103.546 311.041 104.778 311.295 106.24 311.295C107.513 311.295 108.596 311.105 109.489 310.724C110.41 310.318 111.1 309.772 111.561 309.086C112.048 308.4 112.292 307.626 112.292 306.762C112.292 305.721 112.048 304.883 111.561 304.248C111.1 303.588 110.464 303.054 109.652 302.648C108.839 302.242 107.892 301.886 106.809 301.581C105.753 301.251 104.643 300.908 103.478 300.553C101.231 299.842 99.5791 298.953 98.5231 297.886C97.4671 296.82 96.9391 295.435 96.9391 293.734C96.9391 292.286 97.2911 291.017 97.9951 289.924C98.7262 288.832 99.7551 287.982 101.082 287.372C102.436 286.737 104.033 286.42 105.875 286.42C107.689 286.42 109.259 286.737 110.586 287.372C111.94 288.007 112.996 288.883 113.754 290.001C114.512 291.093 114.891 292.363 114.891 293.81H111.317C111.317 293.074 111.114 292.35 110.708 291.639C110.302 290.928 109.679 290.344 108.839 289.886C108.027 289.404 106.998 289.163 105.753 289.163C104.724 289.137 103.803 289.302 102.991 289.658C102.206 289.988 101.583 290.471 101.122 291.105C100.689 291.74 100.473 292.515 100.473 293.429C100.473 294.293 100.662 294.991 101.041 295.524C101.447 296.058 102.016 296.515 102.747 296.896C103.505 297.251 104.385 297.581 105.387 297.886C106.389 298.191 107.499 298.534 108.718 298.915C110.099 299.346 111.317 299.88 112.373 300.515C113.456 301.124 114.296 301.911 114.891 302.877C115.514 303.842 115.825 305.073 115.825 306.572C115.825 307.841 115.46 309.048 114.729 310.191C114.025 311.308 112.969 312.222 111.561 312.933C110.153 313.644 108.379 314 106.24 314Z" fill="#135786"/>
<path d="M128.988 314C126.903 314 125.089 313.644 123.546 312.933C122.002 312.222 120.811 311.232 119.971 309.962C119.132 308.692 118.712 307.219 118.712 305.543H122.286C122.286 306.584 122.544 307.549 123.058 308.438C123.573 309.302 124.317 310 125.292 310.533C126.294 311.041 127.526 311.295 128.988 311.295C130.261 311.295 131.344 311.105 132.237 310.724C133.158 310.318 133.848 309.772 134.309 309.086C134.796 308.4 135.04 307.626 135.04 306.762C135.04 305.721 134.796 304.883 134.309 304.248C133.848 303.588 133.212 303.054 132.4 302.648C131.587 302.242 130.64 301.886 129.557 301.581C128.501 301.251 127.391 300.908 126.226 300.553C123.979 299.842 122.327 298.953 121.271 297.886C120.215 296.82 119.687 295.435 119.687 293.734C119.687 292.286 120.039 291.017 120.743 289.924C121.474 288.832 122.503 287.982 123.83 287.372C125.184 286.737 126.781 286.42 128.623 286.42C130.437 286.42 132.007 286.737 133.334 287.372C134.688 288.007 135.744 288.883 136.502 290.001C137.26 291.093 137.639 292.363 137.639 293.81H134.065C134.065 293.074 133.862 292.35 133.456 291.639C133.05 290.928 132.427 290.344 131.587 289.886C130.775 289.404 129.746 289.163 128.501 289.163C127.472 289.137 126.551 289.302 125.739 289.658C124.954 289.988 124.331 290.471 123.87 291.105C123.437 291.74 123.221 292.515 123.221 293.429C123.221 294.293 123.41 294.991 123.789 295.524C124.195 296.058 124.764 296.515 125.495 296.896C126.253 297.251 127.133 297.581 128.135 297.886C129.137 298.191 130.247 298.534 131.466 298.915C132.847 299.346 134.065 299.88 135.121 300.515C136.204 301.124 137.044 301.911 137.639 302.877C138.262 303.842 138.573 305.073 138.573 306.572C138.573 307.841 138.208 309.048 137.477 310.191C136.773 311.308 135.717 312.222 134.309 312.933C132.901 313.644 131.127 314 128.988 314Z" fill="#135786"/>
<path d="M142.679 313.543V286.877H146.09V313.543H142.679Z" fill="#135786"/>
<path d="M164.058 314C161.323 314 158.913 313.429 156.828 312.286C154.77 311.118 153.159 309.505 151.995 307.448C150.858 305.365 150.289 302.953 150.289 300.21C150.289 297.493 150.858 295.105 151.995 293.048C153.159 290.966 154.77 289.34 156.828 288.172C158.913 287.004 161.323 286.42 164.058 286.42C166.847 286.42 169.27 287.004 171.328 288.172C173.386 289.34 174.984 290.966 176.121 293.048C177.285 295.105 177.867 297.493 177.867 300.21C177.867 302.953 177.285 305.365 176.121 307.448C174.984 309.505 173.386 311.118 171.328 312.286C169.27 313.429 166.847 314 164.058 314ZM164.058 311.181C166.116 311.181 167.916 310.749 169.46 309.886C171.03 308.997 172.235 307.74 173.075 306.115C173.941 304.464 174.374 302.496 174.374 300.21C174.374 297.924 173.941 295.969 173.075 294.343C172.235 292.693 171.03 291.436 169.46 290.572C167.916 289.709 166.116 289.277 164.058 289.277C162.027 289.277 160.226 289.709 158.656 290.572C157.113 291.436 155.908 292.693 155.041 294.343C154.202 295.969 153.782 297.924 153.782 300.21C153.782 302.496 154.202 304.464 155.041 306.115C155.908 307.74 157.113 308.997 158.656 309.886C160.226 310.749 162.027 311.181 164.058 311.181Z" fill="#135786"/>
<path d="M182.027 313.543V286.877H185.439L200.588 308.248V286.877H204V313.543H200.588L185.439 292.172V313.543H182.027Z" fill="#135786"/>
</svg>
