<svg width="96" height="179" viewBox="0 0 96 179" fill="none" xmlns="http://www.w3.org/2000/svg">
<path opacity="0.1" fill-rule="evenodd" clip-rule="evenodd" d="M47.7352 4.70724C47.0122 7.32024 44.4802 14.1082 42.1082 19.7932C39.7362 25.4782 37.0742 32.6782 36.1932 35.7932C34.2272 42.7462 29.0322 56.7632 24.4592 67.4572C19.1952 79.7662 5.2962 108.028 2.5222 112.065C0.330199 115.254 0.0911992 116.474 0.466199 122.565C0.700199 126.356 1.5492 134.182 2.3552 139.957C3.1602 145.732 3.9792 152.257 4.1762 154.457C4.3722 156.657 5.3142 161.104 6.2702 164.339C7.2262 167.574 7.79419 171.624 7.53219 173.339C7.00919 176.767 7.5002 178.957 8.7912 178.957C9.2512 178.957 13.1522 175.469 17.4602 171.207C35.4252 153.431 47.1902 143.046 50.8602 141.723C51.7862 141.389 53.5732 137.521 55.2112 132.307C57.8712 123.834 65.8082 101.254 71.3222 86.4692C72.7562 82.6252 74.7782 77.9002 75.8162 75.9692C76.8532 74.0372 79.0722 69.3552 80.7472 65.5652C82.4222 61.7742 85.1242 56.5082 86.7522 53.8632C89.7412 49.0052 92.7052 39.5092 94.7012 28.3972C96.7912 16.7562 96.5282 16.4332 81.7892 12.5792C59.0592 6.63624 56.7362 5.80524 54.5322 2.82424C51.3602 -1.46676 49.2842 -0.890764 47.7352 4.70724ZM59.5462 12.4082C65.2872 15.3742 81.8752 20.9512 85.0222 20.9722C89.3322 21.0012 90.0162 22.1702 88.7242 27.2992C88.0792 29.8612 87.2672 31.9522 86.9202 31.9462C86.5732 31.9402 84.0392 31.2212 81.2892 30.3472C78.5392 29.4742 75.3892 28.6252 74.2892 28.4602C73.1892 28.2952 67.5642 25.7112 61.7892 22.7182C56.0142 19.7252 50.6142 16.9792 49.7892 16.6172C48.6672 16.1232 48.6042 15.8102 49.5392 15.3742C50.2272 15.0532 50.7892 14.2432 50.7892 13.5742C50.7892 12.1972 52.7762 9.95724 53.9962 9.95724C54.4402 9.95724 56.9382 11.0602 59.5462 12.4082ZM50.3372 27.7002C56.5542 30.7492 56.4702 30.3562 52.9382 39.9572C51.8262 42.9822 49.0592 51.2622 46.7902 58.3582C44.5222 65.4542 41.2742 74.0042 39.5732 77.3582C37.8732 80.7122 32.7312 91.7822 28.1482 101.957C23.2192 112.898 19.2982 120.373 18.5522 120.252C16.9772 119.997 5.4182 115.9 4.9312 115.424C4.7342 115.232 6.17319 112.441 8.12819 109.222C10.0832 106.003 12.6222 101.139 13.7702 98.4132C14.9182 95.6872 18.0552 88.9572 20.7422 83.4572C28.9292 66.6982 35.6952 49.5922 39.3262 36.4702C40.9442 30.6232 43.3882 24.9572 44.2932 24.9572C44.5412 24.9572 47.2612 26.1912 50.3372 27.7002ZM68.0392 34.1522C72.1972 35.3992 72.3922 35.8572 70.4322 39.7572C69.6862 41.2422 68.0712 46.4542 66.8432 51.3392C62.7992 67.4302 48.0822 102.213 40.7732 112.957C39.8382 114.332 37.5982 118.157 35.7952 121.457C33.9932 124.757 32.4242 127.575 32.3072 127.72C31.7262 128.444 24.6252 124.693 24.1292 123.4C23.4002 121.5 28.2302 109.33 36.8102 91.4492C45.8312 72.6502 50.5162 60.4922 55.3002 43.4702C56.2252 40.1772 57.6372 36.2172 58.4382 34.6692C59.9812 31.6862 59.8432 31.6932 68.0392 34.1522ZM84.5392 39.5232C86.3262 39.8872 87.7892 40.7242 87.7892 41.3842C87.7892 42.0442 84.9772 48.2162 81.5392 55.1002C78.1022 61.9842 74.0832 70.2802 72.6082 73.5362C67.8442 84.0582 56.5152 115.096 53.2922 126.457C50.7162 135.535 50.1092 136.393 47.4672 134.687C46.2692 133.913 43.1512 132.471 40.5392 131.483C37.9272 130.494 35.7892 129.515 35.7892 129.308C35.7892 128.774 37.0132 126.581 42.4032 117.457C51.4642 102.119 66.9562 67.4452 69.2102 57.4572C69.5832 55.8072 71.0192 50.6992 72.4012 46.1052L74.9162 37.7532L78.1022 38.3082C79.8552 38.6132 82.7522 39.1602 84.5392 39.5232ZM12.7892 122.344C24.7922 128.544 31.3752 132.155 32.2392 133.013C32.7622 133.532 34.0282 133.957 35.0542 133.957C37.4662 133.957 46.7892 137.961 46.7892 138.997C46.7892 139.433 46.3692 139.94 45.8562 140.124C45.3432 140.307 42.3052 142.941 39.1062 145.977C34.8602 150.007 32.0022 151.83 28.5252 152.727C21.2272 154.611 18.6962 154.251 12.6502 150.469L7.0742 146.981L5.9322 136.933C3.8292 118.44 4.1032 117.857 12.7892 122.344Z" fill="#135786"/>
</svg>
